<?xml version="1.0" standalone="no" ?>
<!DOCTYPE svg PUBLIC "-//W3C//DTD SVG 1.1//EN" "http://www.w3.org/Graphics/SVG/1.1/DTD/svg11.dtd">
<svg width="1024px" height="1024px" xmlns="http://www.w3.org/2000/svg" version="1.1" >
	<polyline points="500,9524 8294.23,-3976 " fill="none" stroke-width="1" stroke="rgb(255,165,0)" />
	<polyline points="8294.23,-3976 -7294.23,-3976 " fill="none" stroke-width="1" stroke="rgb(255,165,0)" />
	<polyline points="-7294.23,-3976 500,9524 " fill="none" stroke-width="1" stroke="rgb(255,165,0)" />
	<polyline points="-1620.95,-700.531 -7294.23,-3976 " fill="none" stroke-width="1" stroke="rgb(0,0,255)" />
	<polyline points="-7294.23,-3976 -1620.95,-700.531 " fill="none" stroke-width="1" stroke="rgb(0,0,255)" />
	<polyline points="2620.95,-700.531 8294.23,-3976 " fill="none" stroke-width="1" stroke="rgb(0,0,255)" />
	<polyline points="8294.23,-3976 2620.95,-700.531 " fill="none" stroke-width="1" stroke="rgb(0,0,255)" />
	<polyline points="" fill="none" stroke-width="1" stroke="rgb(0,0,255)" />
	<polyline points="" fill="none" stroke-width="1" stroke="rgb(0,0,255)" />
	<polyline points="" fill="none" stroke-width="1" stroke="rgb(0,0,255)" />
	<polyline points="" fill="none" stroke-width="1" stroke="rgb(0,0,255)" />
	<polyline points="" fill="none" stroke-width="1" stroke="rgb(0,0,255)" />
	<polyline points="" fill="none" stroke-width="1" stroke="rgb(0,0,255)" />
	<polyline points="" fill="none" stroke-width="1" stroke="rgb(0,0,255)" />
	<polyline points="" fill="none" stroke-width="1" stroke="rgb(0,0,255)" />
	<polyline points="271.65,295.65 271.65,752.35 " fill="none" stroke-width="1" stroke="rgb(255,255,0)" />
	<polyline points="271.65,752.35 271.65,295.65 " fill="none" stroke-width="1" stroke="rgb(255,255,0)" />
	<polyline points="-390.771,752.35 -263.694,1013.17 " fill="none" stroke-width="1" stroke="rgb(0,0,255)" />
	<polyline points="-263.694,1013.17 -390.771,752.35 " fill="none" stroke-width="1" stroke="rgb(0,0,255)" />
	<polyline points="-710.682,295.65 -1620.95,-700.531 " fill="none" stroke-width="1" stroke="rgb(0,0,255)" />
	<polyline points="-1620.95,-700.531 -710.682,295.65 " fill="none" stroke-width="1" stroke="rgb(0,0,255)" />
	<polyline points="271.65,752.35 -390.771,752.35 " fill="none" stroke-width="1" stroke="rgb(255,0,255)" />
	<polyline points="-390.771,752.35 271.65,752.35 " fill="none" stroke-width="1" stroke="rgb(255,0,255)" />
	<polyline points="271.65,295.65 -710.682,295.65 " fill="none" stroke-width="1" stroke="rgb(255,0,255)" />
	<polyline points="-710.682,295.65 271.65,295.65 " fill="none" stroke-width="1" stroke="rgb(255,0,255)" />
	<polyline points="-390.771,752.35 -390.981,751.918 -391.612,750.626 -392.664,748.479 -394.136,745.488 -396.029,741.667 -398.342,737.034 -401.077,731.609 -404.232,725.416 -407.807,718.482 -411.804,710.832 -416.22,702.496 -421.058,693.504 -426.316,683.885 -431.995,673.67 -438.095,662.888 -444.615,651.57 -451.556,639.742 -458.917,627.435 -466.7,614.674 -474.902,601.485 -483.526,587.893 -492.57,573.922 -502.035,559.593 -511.92,544.928 -522.227,529.947 -532.953,514.668 -544.101,499.109 -555.669,483.286 -567.658,467.216 -580.067,450.912 -592.897,434.388 -606.148,417.657 -619.819,400.731 -633.911,383.621 -648.424,366.337 -663.358,348.889 -678.712,331.286 -694.486,313.537 -710.682,295.65 " fill="none" stroke-width="1" stroke="rgb(0,255,255)" />
	<polyline points="-390.771,752.35 -390.981,751.918 -391.612,750.626 -392.664,748.479 -394.136,745.488 -396.029,741.667 -398.342,737.034 -401.077,731.609 -404.232,725.416 -407.807,718.482 -411.804,710.832 -416.22,702.496 -421.058,693.504 -426.316,683.885 -431.995,673.67 -438.095,662.888 -444.615,651.57 -451.556,639.742 -458.917,627.435 -466.7,614.674 -474.902,601.485 -483.526,587.893 -492.57,573.922 -502.035,559.593 -511.92,544.928 -522.227,529.947 -532.953,514.668 -544.101,499.109 -555.669,483.286 -567.658,467.216 -580.067,450.912 -592.897,434.388 -606.148,417.657 -619.819,400.731 -633.911,383.621 -648.424,366.337 -663.358,348.889 -678.712,331.286 -694.486,313.537 -710.682,295.65 " fill="none" stroke-width="1" stroke="rgb(0,255,255)" />
	<polyline points="" fill="none" stroke-width="1" stroke="rgb(0,0,255)" />
	<polyline points="" fill="none" stroke-width="1" stroke="rgb(0,0,255)" />
	<polyline points="" fill="none" stroke-width="1" stroke="rgb(0,0,255)" />
	<polyline points="" fill="none" stroke-width="1" stroke="rgb(0,0,255)" />
	<polyline points="" fill="none" stroke-width="1" stroke="rgb(0,0,255)" />
	<polyline points="" fill="none" stroke-width="1" stroke="rgb(0,0,255)" />
	<polyline points="" fill="none" stroke-width="1" stroke="rgb(0,0,255)" />
	<polyline points="" fill="none" stroke-width="1" stroke="rgb(0,0,255)" />
	<polyline points="" fill="none" stroke-width="1" stroke="rgb(0,0,255)" />
	<polyline points="" fill="none" stroke-width="1" stroke="rgb(0,0,255)" />
	<polyline points="728.35,295.65 271.65,295.65 " fill="none" stroke-width="1" stroke="rgb(255,255,0)" />
	<polyline points="271.65,295.65 728.35,295.65 " fill="none" stroke-width="1" stroke="rgb(255,255,0)" />
	<polyline points="271.65,-360.677 -1620.95,-700.531 " fill="none" stroke-width="1" stroke="rgb(0,0,255)" />
	<polyline points="-1620.95,-700.531 271.65,-360.677 " fill="none" stroke-width="1" stroke="rgb(0,0,255)" />
	<polyline points="728.35,-360.677 2620.95,-700.531 " fill="none" stroke-width="1" stroke="rgb(0,0,255)" />
	<polyline points="2620.95,-700.531 728.35,-360.677 " fill="none" stroke-width="1" stroke="rgb(0,0,255)" />
	<polyline points="271.65,295.65 271.65,-360.677 " fill="none" stroke-width="1" stroke="rgb(255,0,255)" />
	<polyline points="271.65,-360.677 271.65,295.65 " fill="none" stroke-width="1" stroke="rgb(255,0,255)" />
	<polyline points="728.35,295.65 728.35,-360.677 " fill="none" stroke-width="1" stroke="rgb(255,0,255)" />
	<polyline points="728.35,-360.677 728.35,295.65 " fill="none" stroke-width="1" stroke="rgb(255,0,255)" />
	<polyline points="500,-340.175 494.145,-340.188 488.29,-340.229 482.435,-340.296 476.579,-340.391 470.724,-340.512 464.869,-340.66 459.014,-340.835 453.159,-341.038 447.304,-341.267 441.449,-341.523 435.594,-341.806 429.738,-342.116 423.883,-342.453 418.028,-342.817 412.173,-343.208 406.318,-343.626 400.463,-344.071 394.608,-344.542 388.753,-345.041 382.897,-345.567 377.042,-346.119 371.187,-346.699 365.332,-347.306 359.477,-347.939 353.622,-348.6 347.767,-349.287 341.912,-350.002 336.056,-350.743 330.201,-351.511 324.346,-352.307 318.491,-353.129 312.636,-353.978 306.781,-354.854 300.926,-355.757 295.071,-356.687 289.215,-357.644 283.36,-358.628 277.505,-359.639 271.65,-360.677 " fill="none" stroke-width="1" stroke="rgb(0,255,255)" />
	<polyline points="500,-340.175 494.145,-340.188 488.29,-340.229 482.435,-340.296 476.579,-340.391 470.724,-340.512 464.869,-340.66 459.014,-340.835 453.159,-341.038 447.304,-341.267 441.449,-341.523 435.594,-341.806 429.738,-342.116 423.883,-342.453 418.028,-342.817 412.173,-343.208 406.318,-343.626 400.463,-344.071 394.608,-344.542 388.753,-345.041 382.897,-345.567 377.042,-346.119 371.187,-346.699 365.332,-347.306 359.477,-347.939 353.622,-348.6 347.767,-349.287 341.912,-350.002 336.056,-350.743 330.201,-351.511 324.346,-352.307 318.491,-353.129 312.636,-353.978 306.781,-354.854 300.926,-355.757 295.071,-356.687 289.215,-357.644 283.36,-358.628 277.505,-359.639 271.65,-360.677 " fill="none" stroke-width="1" stroke="rgb(0,255,255)" />
	<polyline points="500,-340.175 505.855,-340.188 511.71,-340.229 517.565,-340.296 523.421,-340.391 529.276,-340.512 535.131,-340.66 540.986,-340.835 546.841,-341.038 552.696,-341.267 558.551,-341.523 564.406,-341.806 570.262,-342.116 576.117,-342.453 581.972,-342.817 587.827,-343.208 593.682,-343.626 599.537,-344.071 605.392,-344.542 611.247,-345.041 617.103,-345.567 622.958,-346.119 628.813,-346.699 634.668,-347.306 640.523,-347.939 646.378,-348.6 652.233,-349.287 658.088,-350.002 663.944,-350.743 669.799,-351.511 675.654,-352.307 681.509,-353.129 687.364,-353.978 693.219,-354.854 699.074,-355.757 704.929,-356.687 710.785,-357.644 716.64,-358.628 722.495,-359.639 728.35,-360.677 " fill="none" stroke-width="1" stroke="rgb(0,255,255)" />
	<polyline points="500,-340.175 505.855,-340.188 511.71,-340.229 517.565,-340.296 523.421,-340.391 529.276,-340.512 535.131,-340.66 540.986,-340.835 546.841,-341.038 552.696,-341.267 558.551,-341.523 564.406,-341.806 570.262,-342.116 576.117,-342.453 581.972,-342.817 587.827,-343.208 593.682,-343.626 599.537,-344.071 605.392,-344.542 611.247,-345.041 617.103,-345.567 622.958,-346.119 628.813,-346.699 634.668,-347.306 640.523,-347.939 646.378,-348.6 652.233,-349.287 658.088,-350.002 663.944,-350.743 669.799,-351.511 675.654,-352.307 681.509,-353.129 687.364,-353.978 693.219,-354.854 699.074,-355.757 704.929,-356.687 710.785,-357.644 716.64,-358.628 722.495,-359.639 728.35,-360.677 " fill="none" stroke-width="1" stroke="rgb(0,255,255)" />
	<polyline points="" fill="none" stroke-width="1" stroke="rgb(0,0,255)" />
	<polyline points="" fill="none" stroke-width="1" stroke="rgb(0,0,255)" />
	<polyline points="" fill="none" stroke-width="1" stroke="rgb(0,0,255)" />
	<polyline points="" fill="none" stroke-width="1" stroke="rgb(0,0,255)" />
	<polyline points="" fill="none" stroke-width="1" stroke="rgb(0,0,255)" />
	<polyline points="" fill="none" stroke-width="1" stroke="rgb(0,0,255)" />
	<polyline points="" fill="none" stroke-width="1" stroke="rgb(0,0,255)" />
	<polyline points="" fill="none" stroke-width="1" stroke="rgb(0,0,255)" />
	<polyline points="" fill="none" stroke-width="1" stroke="rgb(0,0,255)" />
	<polyline points="" fill="none" stroke-width="1" stroke="rgb(0,0,255)" />
	<polyline points="728.35,752.35 728.35,295.65 " fill="none" stroke-width="1" stroke="rgb(255,255,0)" />
	<polyline points="728.35,295.65 728.35,752.35 " fill="none" stroke-width="1" stroke="rgb(255,255,0)" />
	<polyline points="500,524 271.65,295.65 " fill="none" stroke-width="1" stroke="rgb(0,128,0)" />
	<polyline points="271.65,295.65 500,524 " fill="none" stroke-width="1" stroke="rgb(0,128,0)" />
	<polyline points="1390.77,752.35 1263.69,1013.17 " fill="none" stroke-width="1" stroke="rgb(0,0,255)" />
	<polyline points="1263.69,1013.17 1390.77,752.35 " fill="none" stroke-width="1" stroke="rgb(0,0,255)" />
	<polyline points="1710.68,295.65 2620.95,-700.531 " fill="none" stroke-width="1" stroke="rgb(0,0,255)" />
	<polyline points="2620.95,-700.531 1710.68,295.65 " fill="none" stroke-width="1" stroke="rgb(0,0,255)" />
	<polyline points="728.35,295.65 1710.68,295.65 " fill="none" stroke-width="1" stroke="rgb(255,0,255)" />
	<polyline points="1710.68,295.65 728.35,295.65 " fill="none" stroke-width="1" stroke="rgb(255,0,255)" />
	<polyline points="728.35,752.35 1390.77,752.35 " fill="none" stroke-width="1" stroke="rgb(255,0,255)" />
	<polyline points="1390.77,752.35 728.35,752.35 " fill="none" stroke-width="1" stroke="rgb(255,0,255)" />
	<polyline points="500,524 728.35,295.65 " fill="none" stroke-width="1" stroke="rgb(0,128,0)" />
	<polyline points="728.35,295.65 500,524 " fill="none" stroke-width="1" stroke="rgb(0,128,0)" />
	<polyline points="1390.77,752.35 1390.98,751.918 1391.61,750.626 1392.66,748.479 1394.14,745.488 1396.03,741.667 1398.34,737.034 1401.08,731.609 1404.23,725.416 1407.81,718.482 1411.8,710.832 1416.22,702.496 1421.06,693.504 1426.32,683.885 1432,673.67 1438.09,662.888 1444.61,651.57 1451.56,639.742 1458.92,627.435 1466.7,614.674 1474.9,601.485 1483.53,587.893 1492.57,573.922 1502.03,559.593 1511.92,544.928 1522.23,529.947 1532.95,514.668 1544.1,499.109 1555.67,483.286 1567.66,467.216 1580.07,450.912 1592.9,434.388 1606.15,417.657 1619.82,400.731 1633.91,383.621 1648.42,366.337 1663.36,348.889 1678.71,331.286 1694.49,313.537 1710.68,295.65 " fill="none" stroke-width="1" stroke="rgb(0,255,255)" />
	<polyline points="1390.77,752.35 1390.98,751.918 1391.61,750.626 1392.66,748.479 1394.14,745.488 1396.03,741.667 1398.34,737.034 1401.08,731.609 1404.23,725.416 1407.81,718.482 1411.8,710.832 1416.22,702.496 1421.06,693.504 1426.32,683.885 1432,673.67 1438.09,662.888 1444.61,651.57 1451.56,639.742 1458.92,627.435 1466.7,614.674 1474.9,601.485 1483.53,587.893 1492.57,573.922 1502.03,559.593 1511.92,544.928 1522.23,529.947 1532.95,514.668 1544.1,499.109 1555.67,483.286 1567.66,467.216 1580.07,450.912 1592.9,434.388 1606.15,417.657 1619.82,400.731 1633.91,383.621 1648.42,366.337 1663.36,348.889 1678.71,331.286 1694.49,313.537 1710.68,295.65 " fill="none" stroke-width="1" stroke="rgb(0,255,255)" />
	<polyline points="" fill="none" stroke-width="1" stroke="rgb(0,0,255)" />
	<polyline points="" fill="none" stroke-width="1" stroke="rgb(0,0,255)" />
	<polyline points="" fill="none" stroke-width="1" stroke="rgb(0,0,255)" />
	<polyline points="" fill="none" stroke-width="1" stroke="rgb(0,0,255)" />
	<polyline points="" fill="none" stroke-width="1" stroke="rgb(0,0,255)" />
	<polyline points="" fill="none" stroke-width="1" stroke="rgb(0,0,255)" />
	<polyline points="" fill="none" stroke-width="1" stroke="rgb(0,0,255)" />
	<polyline points="" fill="none" stroke-width="1" stroke="rgb(0,0,255)" />
	<polyline points="" fill="none" stroke-width="1" stroke="rgb(0,0,255)" />
	<polyline points="" fill="none" stroke-width="1" stroke="rgb(0,0,255)" />
	<polyline points="" fill="none" stroke-width="1" stroke="rgb(0,0,255)" />
	<polyline points="" fill="none" stroke-width="1" stroke="rgb(0,0,255)" />
	<polyline points="271.65,752.35 728.35,752.35 " fill="none" stroke-width="1" stroke="rgb(255,255,0)" />
	<polyline points="728.35,752.35 271.65,752.35 " fill="none" stroke-width="1" stroke="rgb(255,255,0)" />
	<polyline points="500,524 500,524 " fill="none" stroke-width="1" stroke="rgb(0,255,0)" />
	<polyline points="500,524 500,524 " fill="none" stroke-width="1" stroke="rgb(0,255,0)" />
	<polyline points="728.35,2111.97 1263.69,1013.17 " fill="none" stroke-width="1" stroke="rgb(0,0,255)" />
	<polyline points="1263.69,1013.17 728.35,2111.97 " fill="none" stroke-width="1" stroke="rgb(0,0,255)" />
	<polyline points="500,2630.64 500,9524 " fill="none" stroke-width="1" stroke="rgb(0,0,255)" />
	<polyline points="500,9524 500,2630.64 " fill="none" stroke-width="1" stroke="rgb(0,0,255)" />
	<polyline points="271.65,2111.97 -263.694,1013.17 " fill="none" stroke-width="1" stroke="rgb(0,0,255)" />
	<polyline points="-263.694,1013.17 271.65,2111.97 " fill="none" stroke-width="1" stroke="rgb(0,0,255)" />
	<polyline points="728.35,752.35 728.35,2111.97 " fill="none" stroke-width="1" stroke="rgb(255,0,255)" />
	<polyline points="728.35,2111.97 728.35,752.35 " fill="none" stroke-width="1" stroke="rgb(255,0,255)" />
	<polyline points="271.65,752.35 271.65,2111.97 " fill="none" stroke-width="1" stroke="rgb(255,0,255)" />
	<polyline points="271.65,2111.97 271.65,752.35 " fill="none" stroke-width="1" stroke="rgb(255,0,255)" />
	<polyline points="271.65,752.35 500,524 " fill="none" stroke-width="1" stroke="rgb(0,128,0)" />
	<polyline points="500,524 271.65,752.35 " fill="none" stroke-width="1" stroke="rgb(0,128,0)" />
	<polyline points="500,524 728.35,752.35 " fill="none" stroke-width="1" stroke="rgb(0,128,0)" />
	<polyline points="728.35,752.35 500,524 " fill="none" stroke-width="1" stroke="rgb(0,128,0)" />
	<polyline points="728.35,2111.97 728.184,2112.31 727.686,2113.33 726.856,2115.04 725.695,2117.43 724.204,2120.5 722.386,2124.25 720.24,2128.68 717.769,2133.79 714.976,2139.59 711.863,2146.07 708.432,2153.23 704.687,2161.07 700.631,2169.6 696.267,2178.81 691.599,2188.7 686.631,2199.27 681.366,2210.52 675.809,2222.46 669.965,2235.07 663.837,2248.37 657.431,2262.35 650.75,2277.02 643.8,2292.36 636.585,2308.39 629.111,2325.1 621.382,2342.49 613.403,2360.56 605.18,2379.32 596.717,2398.76 588.019,2418.87 579.092,2439.68 569.94,2461.16 560.568,2483.32 550.982,2506.17 541.186,2529.7 531.185,2553.91 520.984,2578.81 510.587,2604.38 500,2630.64 " fill="none" stroke-width="1" stroke="rgb(0,255,255)" />
	<polyline points="728.35,2111.97 728.184,2112.31 727.686,2113.33 726.856,2115.04 725.695,2117.43 724.204,2120.5 722.386,2124.25 720.24,2128.68 717.769,2133.79 714.976,2139.59 711.863,2146.07 708.432,2153.23 704.687,2161.07 700.631,2169.6 696.267,2178.81 691.599,2188.7 686.631,2199.27 681.366,2210.52 675.809,2222.46 669.965,2235.07 663.837,2248.37 657.431,2262.35 650.75,2277.02 643.8,2292.36 636.585,2308.39 629.111,2325.1 621.382,2342.49 613.403,2360.56 605.18,2379.32 596.717,2398.76 588.019,2418.87 579.092,2439.68 569.94,2461.16 560.568,2483.32 550.982,2506.17 541.186,2529.7 531.185,2553.91 520.984,2578.81 510.587,2604.38 500,2630.64 " fill="none" stroke-width="1" stroke="rgb(0,255,255)" />
	<polyline points="271.65,2111.97 271.816,2112.31 272.314,2113.33 273.144,2115.04 274.305,2117.43 275.796,2120.5 277.614,2124.25 279.76,2128.68 282.231,2133.79 285.024,2139.59 288.137,2146.07 291.568,2153.23 295.313,2161.07 299.369,2169.6 303.733,2178.81 308.401,2188.7 313.369,2199.27 318.634,2210.52 324.191,2222.46 330.035,2235.07 336.163,2248.37 342.569,2262.35 349.25,2277.02 356.2,2292.36 363.415,2308.39 370.889,2325.1 378.618,2342.49 386.597,2360.56 394.82,2379.32 403.283,2398.76 411.981,2418.87 420.908,2439.68 430.06,2461.16 439.432,2483.32 449.018,2506.17 458.814,2529.7 468.815,2553.91 479.016,2578.81 489.413,2604.38 500,2630.64 " fill="none" stroke-width="1" stroke="rgb(0,255,255)" />
	<polyline points="271.65,2111.97 271.816,2112.31 272.314,2113.33 273.144,2115.04 274.305,2117.43 275.796,2120.5 277.614,2124.25 279.76,2128.68 282.231,2133.79 285.024,2139.59 288.137,2146.07 291.568,2153.23 295.313,2161.07 299.369,2169.6 303.733,2178.81 308.401,2188.7 313.369,2199.27 318.634,2210.52 324.191,2222.46 330.035,2235.07 336.163,2248.37 342.569,2262.35 349.25,2277.02 356.2,2292.36 363.415,2308.39 370.889,2325.1 378.618,2342.49 386.597,2360.56 394.82,2379.32 403.283,2398.76 411.981,2418.87 420.908,2439.68 430.06,2461.16 439.432,2483.32 449.018,2506.17 458.814,2529.7 468.815,2553.91 479.016,2578.81 489.413,2604.38 500,2630.64 " fill="none" stroke-width="1" stroke="rgb(0,255,255)" />
	<circle cx="500" cy="-976" r="0.05" fill="rgb(100,200,120)" stroke-width="0.01" stroke="rgb(200,250,150)" />
	<circle cx="-799.038" cy="1274" r="0.05" fill="rgb(100,200,120)" stroke-width="0.01" stroke="rgb(200,250,150)" />
	<circle cx="1799.04" cy="1274" r="0.05" fill="rgb(100,200,120)" stroke-width="0.01" stroke="rgb(200,250,150)" />
	<circle cx="271.65" cy="752.35" r="0.05" fill="rgb(100,200,120)" stroke-width="0.01" stroke="rgb(200,250,150)" />
	<circle cx="271.65" cy="295.65" r="0.05" fill="rgb(100,200,120)" stroke-width="0.01" stroke="rgb(200,250,150)" />
	<circle cx="728.35" cy="295.65" r="0.05" fill="rgb(100,200,120)" stroke-width="0.01" stroke="rgb(200,250,150)" />
	<circle cx="728.35" cy="752.35" r="0.05" fill="rgb(100,200,120)" stroke-width="0.01" stroke="rgb(200,250,150)" />
</svg>
